<svg width="56" height="56" viewBox="0 0 56 56" fill="none" xmlns="http://www.w3.org/2000/svg">
<path d="M3.5 20.9222C3.5 14.8239 3.5 11.7747 4.68682 9.44544C5.73077 7.39656 7.39656 5.73077 9.44544 4.68682C11.7747 3.5 14.8239 3.5 20.9222 3.5H35.0778C41.1761 3.5 44.2253 3.5 46.5546 4.68682C48.6034 5.73077 50.2692 7.39656 51.3132 9.44544C52.5 11.7747 52.5 14.8239 52.5 20.9222V35.0778C52.5 41.1761 52.5 44.2253 51.3132 46.5546C50.2692 48.6034 48.6034 50.2692 46.5546 51.3132C44.2253 52.5 41.1761 52.5 35.0778 52.5H20.9222C14.8239 52.5 11.7747 52.5 9.44544 51.3132C7.39656 50.2692 5.73077 48.6034 4.68682 46.5546C3.5 44.2253 3.5 41.1761 3.5 35.0778V20.9222Z" fill="white"/>
<path d="M28.0038 21.7891L21.9473 11.1006C22.1484 10.8958 22.3797 10.7615 22.6111 10.6713C20.8251 11.2591 20.0055 13.2647 20.0055 13.2647L8.94116 32.7858C8.78547 33.3978 8.74222 33.9504 8.76168 34.437H20.838L28.0038 21.7891Z" fill="#34A853"/>
<path d="M28.0034 21.7891L35.1692 34.437H47.2456C47.265 33.9504 47.2218 33.3978 47.0661 32.7858L36.0017 13.2647C36.0017 13.2647 35.18 11.2591 33.3961 10.6713C33.6253 10.7615 33.8589 10.8958 34.06 11.1006L28.0034 21.7891Z" fill="#FBBC05"/>
<path d="M28.0033 21.7895L34.0599 11.101C33.8588 10.8963 33.6253 10.762 33.3961 10.6717C33.1323 10.5858 32.849 10.5286 32.542 10.5132H32.2219H23.7847H23.4647C23.1598 10.5264 22.8744 10.5836 22.6106 10.6717C22.3814 10.762 22.1479 10.8963 21.9468 11.101L28.0033 21.7895Z" fill="#188038"/>
<path d="M20.8399 34.437L14.8525 45.0044C14.8525 45.0044 14.6536 44.9076 14.3833 44.7072C15.2331 45.3611 16.0591 45.4998 16.0591 45.4998H39.5739C40.8712 45.4998 41.1415 45.0044 41.1415 45.0044C41.1459 45.0022 41.148 45 41.1523 44.9978L35.1693 34.437H20.8399Z" fill="#4285F4"/>
<path d="M20.84 34.437H8.76367C8.82422 35.8724 9.44695 36.7112 9.44695 36.7112L9.90103 37.4994C9.93347 37.5456 9.95293 37.572 9.95293 37.572L10.9411 39.3068L13.1596 43.1683C13.2245 43.3247 13.3001 43.4678 13.3801 43.6043C13.4104 43.6505 13.4385 43.7011 13.471 43.7451C13.4796 43.7584 13.4883 43.7716 13.4969 43.7848C13.7715 44.1723 14.0786 44.4717 14.3856 44.7072C14.6559 44.9098 14.8548 45.0044 14.8548 45.0044L20.84 34.437Z" fill="#1967D2"/>
<path d="M35.1689 34.437H47.2453C47.1847 35.8724 46.562 36.7112 46.562 36.7112L46.1079 37.4994C46.0755 37.5456 46.056 37.572 46.056 37.572L45.0679 39.3068L42.8494 43.1683C42.7845 43.3247 42.7088 43.4678 42.6288 43.6043C42.5985 43.6505 42.5704 43.7011 42.538 43.7451C42.5293 43.7584 42.5207 43.7716 42.512 43.7848C42.2374 44.1723 41.9304 44.4717 41.6233 44.7072C41.3531 44.9098 41.1541 45.0044 41.1541 45.0044L35.1689 34.437Z" fill="#EA4335"/>
</svg>
