<svg width="56" height="56" viewBox="0 0 56 56" fill="none" xmlns="http://www.w3.org/2000/svg">
<path fill-rule="evenodd" clip-rule="evenodd" d="M10.003 51.1311L3.98411 43.633C2.53598 41.829 1.75 39.6106 1.75 37.3273V10.1762C1.75 6.75612 4.48628 3.9182 8.01625 3.67719L35.9312 1.77132C37.9592 1.63286 39.9749 2.17191 41.6408 3.29823L51.4487 9.92935C53.2043 11.1163 54.25 13.0567 54.25 15.1274V45.9956C54.25 49.3426 51.5595 52.1138 48.1033 52.3265L17.1208 54.2337C14.3628 54.4034 11.697 53.2414 10.003 51.1311Z" fill="white"/>
<path d="M19.6842 23.7627V23.4073C19.6842 22.5062 20.4058 21.7589 21.3359 21.6968L28.1108 21.2445L37.4798 35.0412V22.9323L35.0683 22.6108V22.4419C35.0683 21.5303 35.8064 20.7781 36.7484 20.7298L42.9128 20.414V21.3011C42.9128 21.7176 42.6031 22.0738 42.1787 22.1456L40.6952 22.3965V42.0065L38.8335 42.6467C37.2782 43.1816 35.5467 42.609 34.6563 41.2655L25.5606 27.5401V40.6402L28.3602 41.176L28.3212 41.4357C28.1991 42.2491 27.4968 42.8643 26.6472 42.9021L19.6842 43.212C19.5921 42.3373 20.2477 41.5547 21.1521 41.4597L22.068 41.3635V23.8967L19.6842 23.7627Z" fill="black"/>
<path fill-rule="evenodd" clip-rule="evenodd" d="M36.1811 5.19187L8.26607 7.09774C6.59398 7.2119 5.29785 8.55618 5.29785 10.1762V37.3273C5.29785 38.8495 5.82184 40.3284 6.78726 41.5311L12.8061 49.0292C13.7793 50.2415 15.3107 50.9091 16.8951 50.8115L47.8776 48.9044C49.4656 48.8066 50.7018 47.5334 50.7018 45.9956V15.1275C50.7018 14.176 50.2213 13.2845 49.4147 12.7391L39.6068 6.10801C38.6073 5.43222 37.3979 5.10879 36.1811 5.19187ZM9.65032 10.5997C9.26207 10.3123 9.44684 9.71346 9.93458 9.67847L36.3688 7.78244C37.2111 7.72203 38.048 7.95396 38.7291 8.43654L44.0329 12.1942C44.2343 12.3369 44.1398 12.6449 43.8906 12.6584L15.8968 14.1809C15.0496 14.227 14.2134 13.9781 13.5398 13.4794L9.65032 10.5997ZM14.5838 18.9537C14.5838 18.0443 15.3185 17.2931 16.258 17.2419L45.8553 15.63C46.771 15.5802 47.5418 16.2843 47.5418 17.1707V43.8992C47.5418 44.807 46.8097 45.5574 45.872 45.6108L16.462 47.2842C15.443 47.3422 14.5838 46.5591 14.5838 45.5726V18.9537Z" fill="black"/>
</svg>
